<svg width="566" height="192" viewBox="0 0 566 192" fill="none" xmlns="http://www.w3.org/2000/svg">
<path d="M51.9266 145.183C80.1931 145.183 102.178 128.014 102.178 103.307C102.178 73.5749 76.6336 66.6653 55.6954 62.4777C38.7356 59.1276 23.8695 55.7775 23.8695 40.702C23.8695 28.7672 35.3855 20.392 49.6234 20.392C65.1176 20.392 75.7961 27.511 81.4494 39.0269L99.2468 29.8142C90.8715 10.5511 71.8178 0.500758 50.4609 0.500758C23.8695 0.500758 2.72196 18.0888 2.72196 41.3301C2.72196 71.0623 28.8946 77.9719 50.0422 82.1595C66.5833 85.3002 80.8212 88.0222 80.8212 103.516C80.8212 117.336 68.2583 125.083 51.9266 125.083C35.3855 125.083 23.4507 118.592 18.0068 106.448L0 115.242C8.37525 134.505 28.2665 145.183 51.9266 145.183Z" fill="white"/>
<path d="M117.824 6.10352e-05V142.88H138.553V6.10352e-05H117.824Z" fill="white"/>
<path d="M402.81 37.3519C383.338 37.3519 368.891 47.821 363.237 63.7339C358.003 47.821 343.137 37.3519 322.617 37.3519C291.838 37.3519 275.507 60.3838 275.507 89.0691V142.88H296.235V92.2098C296.235 73.5749 304.82 57.2431 324.083 57.2431C343.137 57.2431 352.559 72.9467 352.559 91.7911V142.88H373.288V91.7911C373.288 72.9467 382.71 57.2431 401.345 57.2431C420.608 57.2431 429.821 73.5749 429.821 92.2098V142.88H450.549V88.8597C450.549 60.3838 433.799 37.3519 402.81 37.3519Z" fill="white"/>
<path fill-rule="evenodd" clip-rule="evenodd" d="M259.451 88.7597C259.451 58.6429 234.946 34.1384 204.83 34.1384C174.713 34.1384 150.208 58.6429 150.208 88.7597C150.208 118.876 174.713 143.381 204.83 143.381H259.451L259.451 88.7597ZM196.704 93.3114C196.704 99.047 201.369 103.713 207.105 103.713C212.84 103.713 217.507 99.0462 217.507 93.3114H241.243C241.243 112.135 225.929 127.45 207.105 127.45C188.281 127.45 172.967 112.135 172.967 93.3114H196.704Z" fill="url(#paint0_radial_3_337)"/>
<path d="M512.43 191.12C545.722 191.12 565.823 167.46 565.823 133.121V38.6902H544.885V89.3605C544.885 108.205 533.159 123.28 515.152 123.28C496.517 123.28 486.467 110.089 486.467 90.8262V38.6902H465.948V91.8731C465.948 122.024 481.233 142.753 512.64 142.753C528.134 142.753 539.022 135.843 545.094 124.327V133.331C545.094 155.525 534.206 170.692 512.43 170.692V191.12Z" fill="white"/>
<defs>
<radialGradient id="paint0_radial_3_337" cx="0" cy="0" r="1" gradientUnits="userSpaceOnUse" gradientTransform="translate(259.451 143.381) rotate(-133.636) scale(135.219)">
<stop stop-color="#3E3EF4"/>
<stop offset="1" stop-color="#7272FF"/>
</radialGradient>
</defs>
</svg>
